Coordinates
version=1
nRows=27
nColumns=19
inDegrees=yes

Units are S.I. units (second, meters, Newtons, ...)
If the header above contains a line with 'inDegrees', this indicates whether rotational values are in degrees (yes) or radians (no).

endheader
time	pelvis_tilt	pelvis_list	pelvis_rotation	pelvis_tx	pelvis_ty	pelvis_tz	hip_flexion_r	hip_adduction_r	hip_rotation_r	knee_angle_r	knee_angle_r_beta	ankle_angle_r	hip_flexion_l	hip_adduction_l	hip_rotation_l	knee_angle_l	knee_angle_l_beta	ankle_angle_l
     13.40000000	      2.70626760	      4.81817805	      0.76638368	      2.19920798	      0.99695973	      1.04160916	    -12.65296462	     -9.57148977	     -9.40485674	     56.40056438	      0.98437555	     -9.90298327	     13.13428385	      6.92807925	    -15.63362753	     16.50664226	      0.28809526	      0.12349714
     13.40666667	      2.82912595	      5.27283591	      0.98950792	      2.19838519	      0.99200467	      1.04056386	    -11.41537899	    -10.36876783	     -8.96590510	     60.34361503	      1.05319476	     -9.38481824	     12.58640848	      7.66238984	    -15.94247083	     16.99120660	      0.29655250	      0.56528093
     13.41333333	      3.04181365	      5.85028213	      1.24786147	      2.19736806	      0.98685397	      1.03952138	    -10.24624751	    -11.32499945	     -8.62448327	     64.22623245	      1.12095922	     -8.79093422	     12.01956492	      8.46626019	    -16.20788120	     17.83739250	      0.31132123	      1.38407096
     13.42000000	      3.13857294	      6.46598429	      1.49455323	      2.19609411	      0.98139456	      1.03867202	     -8.84675440	    -12.30481127	     -8.17406162	     68.09959295	      1.18856212	     -8.12926029	     11.70958252	      9.20874559	    -16.49472539	     19.12808589	      0.33384808	      2.56835706
     13.42666667	      3.09269251	      7.02863242	      1.72944687	      2.19447096	      0.97576650	      1.03798258	     -7.17427232	    -13.19548501	     -7.56962519	     71.90372906	      1.25495682	     -7.42877884	     11.67971278	      9.80231154	    -16.75279441	     20.79542691	      0.36294867	      4.10554756
     13.43333333	      3.12116329	      7.68303446	      1.95256457	      2.19266665	      0.97025241	      1.03747602	     -5.52541068	    -14.16226989	     -6.89955998	     75.57098902	      1.31896258	     -6.71631982	     11.58834591	     10.43312306	    -16.91690605	     22.59450019	      0.39434842	      5.84441361
     13.44000000	      3.12083880	      8.34127739	      2.13596169	      2.19055887	      0.96490353	      1.03719861	     -3.72712716	    -15.08759408	     -6.06613544	     79.10516921	      1.38064566	     -6.00477633	     11.56788219	     11.00366134	    -17.01375018	     24.51269734	      0.42782728	      7.73521394
     13.44666667	      3.06788448	      8.83809252	      2.33766717	      2.18811841	      0.95983914	      1.03715095	     -1.76338288	    -15.75103641	     -5.10682971	     82.44324434	      1.43890606	     -5.30512716	     11.66467542	     11.33814522	    -16.97582578	     26.57335765	      0.46379258	      9.72698259
     13.45333333	      3.01884462	      9.30476107	      2.48762749	      2.18544262	      0.95518971	      1.03727517	      0.32277170	    -16.32171210	     -4.00623647	     85.59536412	      1.49392093	     -4.71783911	     11.70081775	     11.62984459	    -16.82867304	     28.50420384	      0.49749221	     11.67839322
     13.46000000	      3.00306971	      9.68188483	      2.60286680	      2.18256492	      0.95111563	      1.03758053	      2.46547124	    -16.71798767	     -2.79906934	     88.48700793	      1.54438963	     -4.18513968	     11.64241135	     11.80660689	    -16.59665511	     30.28953833	      0.52865217	     13.50634425
     13.46666667	      3.05364272	      9.94781228	      2.70800988	      2.17958579	      0.94774178	      1.03793560	      4.59395650	    -16.92489096	     -1.56668703	     91.07518128	      1.58956178	     -3.69920387	     11.40452750	     11.86900454	    -16.26222996	     31.85502012	      0.55597498	     15.17213461
     13.47333333	      3.16939643	     10.12121770	      2.73578448	      2.17654643	      0.94512152	      1.03838602	      6.72418682	    -16.95481473	     -0.25329710	     93.34827313	      1.62923472	     -3.30388421	     10.95062808	     11.84443483	    -15.91379443	     33.09513746	      0.57761912	     16.61608222
     13.48000000	      3.30780602	     10.19502153	      2.75705723	      2.17352436	      0.94323079	      1.03876677	      8.83984842	    -16.82090342	      1.02806771	     95.28005709	      1.66295071	     -2.95425144	     10.31045145	     11.74462246	    -15.52335041	     34.01172320	      0.59361655	     17.81380171
     13.48666667	      3.38119718	     10.16178727	      2.80877368	      2.17061562	      0.94198812	      1.03901627	     11.00416285	    -16.53526507	      2.22615387	     96.85917597	      1.69051153	     -2.65526431	      9.56418117	     11.58290433	    -15.06930302	     34.59274901	      0.60375737	     18.78218510
     13.49333333	      3.79937629	     10.06387960	      2.99976647	      2.16792145	      0.94186880	      1.03896739	     12.61022852	    -16.20708367	      3.07207948	     97.97675894	      1.71001703	     -2.38590773	      8.20895785	     11.44433114	    -14.30998716	     34.76111211	      0.60669586	     19.51399770
     13.50000000	      3.90365558	      9.90659393	      2.78907258	      2.16546943	      0.94200579	      1.03918755	     14.72134822	    -15.67258977	      4.35728137	     98.83843299	      1.72505608	     -2.15304952	      7.03062058	     11.19254915	    -14.20367568	     34.54779741	      0.60297281	     19.99505459
     13.50666667	      4.02565919	      9.63019016	      3.04405556	      2.16331364	      0.94288234	      1.03874434	     16.47820150	    -15.15296578	      4.96609151	     99.24850058	      1.73221311	     -1.87978907	      5.65928558	     10.96182824	    -13.45953382	     34.11171209	      0.59536169	     20.25992324
     13.51333333	      4.01682038	      9.28520452	      3.22733691	      2.16152535	      0.94420761	      1.03818327	     18.29643740	    -14.56688966	      5.52851716	     99.31154854	      1.73331351	     -1.58892811	      4.25809484	     10.69090056	    -12.86984474	     33.34681736	      0.58201176	     20.32350400
     13.52000000	      3.87805432	      8.90096331	      3.42531661	      2.16016262	      0.94591510	      1.03743650	     20.11319904	    -13.98123004	      5.95200532	     99.03642813	      1.72851175	     -1.27841911	      2.85909936	     10.39105795	    -12.39767995	     32.34993495	      0.56461288	     20.16317038
     13.52666667	      4.07624730	      8.69179125	      3.25999714	      2.15901268	      0.94826153	      1.03692745	     21.55742570	    -13.47458927	      6.63725830	     98.49275098	      1.71902279	     -0.99308821	      0.93979854	     10.30506055	    -12.22372569	     30.97721816	      0.54065445	     19.68358081
     13.53333333	      4.12378571	      8.25902132	      3.56365067	      2.15835615	      0.95101902	      1.03580404	     22.79330156	    -12.98764328	      6.59167500	     97.54962170	      1.70256208	     -0.56466753	     -0.88079978	     10.01421062	    -11.58673069	     29.58217632	      0.51630638	     19.01492601
     13.54000000	      3.62875362	      7.72029949	      3.95577093	      2.15797239	      0.95364389	      1.03459236	     24.49657636	    -12.41702427	      6.45044243	     96.34472130	      1.68153260	     -0.13945043	     -2.08295059	      9.60127252	    -11.03848705	     28.24622617	      0.49298965	     18.11973377
     13.54666667	      3.03871983	      7.16533573	      4.36319379	      2.15804184	      0.95634557	      1.03317378	     26.16418780	    -12.03213584	      6.05239825	     94.90439250	      1.65639412	      0.35716927	     -3.19580676	      9.12185081	    -10.74393379	     26.90049709	      0.46950224	     17.01667479
     13.55333333	      3.61687278	      6.65566741	      4.79681054	      2.15847930	      0.96088687	      1.03174194	     26.20237241	    -11.69742862	      5.33028601	     92.98157659	      1.62283466	      0.95939818	     -5.78545610	      8.67617526	     -9.87839344	     25.05937248	      0.43736856	     15.42822966
     13.56000000	      2.78865761	      6.00163653	      5.19249311	      2.15912214	      0.96398256	      1.03045914	     27.84174715	    -11.27714738	      4.71173099	     91.02702589	      1.58872131	      1.48341380	     -6.56276003	      8.06229138	     -9.59205723	     23.75579908	      0.41461691	     13.74227203
     13.56666667	      3.06686651	      5.30110816	      5.69922582	      2.16019010	      0.96865536	      1.02894867	     27.91344510	    -10.96734218	      3.54944920	     88.62093502	      1.54672710	      2.12986148	     -8.66834885	      7.27362052	     -9.04493892	     22.11677414	      0.38601053	     11.74362540
     13.57333333	      2.32951575	      4.60074316	      6.02444503	      2.16143335	      0.97230910	      1.02775673	     29.15745433	    -10.62817360	      2.64338982	     86.16329914	      1.50383326	      2.57756177	     -9.49796252	      6.56744529	     -8.79633544	     20.75531472	      0.36224858	      9.62446059
